<?xml version="1.0"?><svg width="364.05" height="441.881" xmlns="http://www.w3.org/2000/svg">
 <metadata id="metadata3">EPS converted from  http://aiga.orgsymbolmapsymOpen Clip Art LibraryJean-Victor BalinJean-Victor Balinimage/svg+xmlen</metadata>

 <g>
  <title>Layer 1</title>
  <g id="g1663">
   <g id="g1671">
    <g transform="matrix(0,1,-1,0,400.8515,-182.6145)" id="g1675">
     <g transform="matrix(0.42451466,0.47038737,-0.47038737,0.42451466,131.19099,49.58848)" id="g3037">
      <g transform="matrix(0.99882889,0.04838229,-0.04838229,0.99882889,-9.9051686,-9.808837)" id="g3181">
       <g id="g3132"/>
       <g id="g3329">
        <path fill="#ff7f00" id="path1667" d="m299.432098,-41.862991c-30.243774,-24.747566 -74.821396,-20.292145 -99.567963,9.950434c-24.744568,30.240134 -20.291168,74.820192 9.952637,99.567755c30.242584,24.746574 74.823425,20.289719 99.567993,-9.950417c24.746552,-30.242579 20.289948,-74.821199 -9.952667,-99.567772z"/>
        <path fill="#ff7f00" id="path1669" d="m389.176849,105.152702c-44.139374,-9.60759 -63.513123,-74.402611 -37.404602,-106.862877l85.260712,-104.196434l-4.880066,-95.349724c-1.760498,-44.264893 63.010712,-49.895203 67.132233,-3.76564l5.629303,107.74968c0.72168,6.210716 -0.026215,12.44046 -7.80896,21.951706l-40.82785,49.895374l141.098602,27.171222l217.132141,-265.355384c48.973389,-59.850037 130.123718,6.57312 81.584045,65.893021l-257.359253,314.516701c-14.370239,17.561699 -35.273743,28.924965 -60.794861,24.655632l-188.761444,-36.303276z"/>
        <path fill="#ff7f00" d="m406.178314,-330.590973l-86.099731,-70.452728l-128.431259,156.954819l173.194016,142.227051c22.291077,18.240097 51.210144,-0.070267 50.276459,-27.175323l-8.939484,-201.553818z" id="path1673"/>
        <path fill="#ff7f00" id="path1679" d="m268.358978,-57.875481c3.027008,0 5.480011,-2.453999 5.480011,-5.48c0,-3.026997 -2.453003,-5.480999 -5.480011,-5.480999c-3.026001,0 -5.480011,2.454002 -5.480011,5.480999c0,3.026001 2.45401,5.48 5.480011,5.48z"/>
        <path fill="#ff7f00" id="path1681" d="m268.358978,-63.35548"/>
        <path fill="#ff7f00" id="path1697" d="m269.356964,-74.133476c3.027008,0 5.480011,-2.453003 5.480011,-5.480003c0,-3.026001 -2.453003,-5.480003 -5.480011,-5.480003c-3.026001,0 -5.480011,2.454002 -5.480011,5.480003c0,3.027 2.45401,5.480003 5.480011,5.480003z"/>
        <path fill="#ff7f00" id="path1699" d="m269.356964,-79.61348"/>
        <path fill="#ff7f00" id="path1703" d="m273.177246,-90.981644c3.178009,0 5.753998,-2.575996 5.753998,-5.753998c0,-3.178001 -2.575989,-5.753998 -5.753998,-5.753998c-3.178009,0 -5.753998,2.575996 -5.753998,5.753998c0,3.178001 2.575989,5.753998 5.753998,5.753998z"/>
        <path fill="#ff7f00" id="path1705" d="m273.177246,-96.735641"/>
        <path fill="#ff7f00" id="path1715" d="m278.294342,-107.826843c3.337006,0 6.041992,-2.704994 6.041992,-6.042c0,-3.336998 -2.704987,-6.042 -6.041992,-6.042c-3.335999,0 -6.041992,2.705002 -6.041992,6.042c0,3.337006 2.705994,6.042 6.041992,6.042z"/>
        <path fill="#ff7f00" id="path1717" d="m278.294342,-113.868843"/>
        <path fill="#ff7f00" id="path1727" d="m286.349884,-123.183861c3.335999,0 6.040985,-2.705002 6.040985,-6.042c0,-3.337006 -2.704987,-6.041992 -6.040985,-6.041992c-3.337006,0 -6.041992,2.704987 -6.041992,6.041992c0,3.336998 2.704987,6.042 6.041992,6.042z"/>
        <path fill="#ff7f00" id="path1729" d="m286.349884,-129.225861"/>
        <path fill="#ff7f00" id="path1733" d="m293.145966,-137.738724c3.678009,0 6.661011,-2.981995 6.661011,-6.660995c0,-3.679001 -2.983002,-6.660995 -6.661011,-6.660995c-3.678986,0 -6.661987,2.981995 -6.661987,6.660995c0,3.679001 2.983002,6.660995 6.661987,6.660995z"/>
        <path fill="#ff7f00" id="path1735" d="m293.145966,-144.399734"/>
        <path fill="#ff7f00" id="path1745" d="m301.68103,-151.220306c3.862,0 6.993988,-3.132004 6.993988,-6.994003c0,-3.863007 -3.131989,-6.994995 -6.993988,-6.994995c-3.863007,0 -6.994995,3.131989 -6.994995,6.994995c0,3.862 3.131989,6.994003 6.994995,6.994003z"/>
        <path fill="#ff7f00" id="path1747" d="m301.68103,-158.214294"/>
        <path fill="#ff7f00" id="path1751" d="m339.339874,-127.481796c4.056,0 7.343994,-3.28801 7.343994,-7.344009c0,-4.056 -3.287994,-7.343994 -7.343994,-7.343994c-4.056,0 -7.343994,3.287994 -7.343994,7.343994c0,4.056 3.287994,7.344009 7.343994,7.344009z"/>
        <path fill="#ff7f00" id="path1753" d="m339.339874,-134.825806"/>
        <path fill="#ff7f00" d="m280.734924,-82.236252c2.068909,0 3.74588,-1.676994 3.74588,-3.745888c0,-2.068901 -1.676971,-3.745895 -3.74588,-3.745895c-2.068909,0 -3.74588,1.676994 -3.74588,3.745895c0,2.068893 1.676971,3.745888 3.74588,3.745888z" id="path3177"/>
        <path fill="#ff7f00" d="m280.734924,-85.98214" id="path3179"/>
        <path fill="#ff7f00" id="path3091" d="m278.207825,-67.269684c2.068909,0 3.74588,-1.676987 3.74588,-3.74588c0,-2.068901 -1.676971,-3.745888 -3.74588,-3.745888c-2.068878,0 -3.74588,1.676987 -3.74588,3.745888c0,2.068893 1.677002,3.74588 3.74588,3.74588z"/>
        <path fill="#ff7f00" id="path3093" d="m278.207825,-71.015564"/>
        <path fill="#ff7f00" id="path3097" d="m286.379669,-97.931595c2.449677,0 4.435394,-1.985725 4.435394,-4.435394c0,-2.448936 -1.985718,-4.434662 -4.435394,-4.434662c-2.448944,0 -4.435394,1.985725 -4.435394,4.434662c0,2.449669 1.98645,4.435394 4.435394,4.435394z"/>
        <path fill="#ff7f00" id="path3099" d="m286.379669,-102.366989"/>
        <path fill="#ff7f00" id="path3103" d="m294.664185,-112.091942c2.969177,0 5.375824,-2.407448 5.375824,-5.375809c0,-2.96917 -2.406647,-5.376625 -5.375824,-5.376625c-2.969177,0 -5.375824,2.407455 -5.375824,5.376625c0,2.968361 2.406647,5.375809 5.375824,5.375809z"/>
        <path fill="#ff7f00" id="path3105" d="m294.664185,-117.467751"/>
        <path fill="#ff7f00" id="path3109" d="m304.453979,-126.69696c3.522766,0 6.379211,-2.85643 6.379211,-6.380066c0,-3.523621 -2.856445,-6.380051 -6.379211,-6.380051c-3.523621,0 -6.380035,2.85643 -6.380035,6.380051c0,3.523636 2.856415,6.380066 6.380035,6.380066z"/>
        <path fill="#ff7f00" id="path3111" d="m304.453979,-133.077026"/>
        <path fill="#ff7f00" d="m288.365387,-51.799751c3.026001,0 5.480011,-2.453999 5.480011,-5.48c0,-3.027 -2.45401,-5.48 -5.480011,-5.48c-3.027008,0 -5.480011,2.452999 -5.480011,5.48c0,3.026001 2.453003,5.48 5.480011,5.48z" id="path1685"/>
        <path fill="#ff7f00" id="path1691" d="m289.305389,-67.99575c3.026001,0 5.480011,-2.454002 5.480011,-5.480003c0,-3.026993 -2.45401,-5.480995 -5.480011,-5.480995c-3.027008,0 -5.480011,2.454002 -5.480011,5.480995c0,3.026001 2.453003,5.480003 5.480011,5.480003z"/>
        <path fill="#ff7f00" id="path1693" d="m289.305389,-73.475754"/>
        <path fill="#ff7f00" id="path1709" d="m292.881714,-82.743271c3.178009,0 5.753998,-2.575996 5.753998,-5.753998c0,-3.178001 -2.575989,-5.753998 -5.753998,-5.753998c-3.178009,0 -5.753998,2.575996 -5.753998,5.753998c0,3.178001 2.575989,5.753998 5.753998,5.753998z"/>
        <path fill="#ff7f00" id="path1711" d="m292.881714,-88.497269"/>
        <path fill="#ff7f00" id="path1721" d="m300.779419,-94.869797c3.337006,0 6.041992,-2.705002 6.041992,-6.042c0,-3.336006 -2.704987,-6.041 -6.041992,-6.041c-3.335999,0 -6.041992,2.704994 -6.041992,6.041c0,3.336998 2.705994,6.042 6.041992,6.042z"/>
        <path fill="#ff7f00" id="path1723" d="m300.779419,-100.911797"/>
        <path fill="#ff7f00" id="path1739" d="m311.193726,-108.071167c3.679016,0 6.661011,-2.983002 6.661011,-6.661003c0,-3.679001 -2.981995,-6.662003 -6.661011,-6.662003c-3.678986,0 -6.661011,2.983002 -6.661011,6.662003c0,3.678001 2.982025,6.661003 6.661011,6.661003z"/>
        <path fill="#ff7f00" id="path1741" d="m311.193726,-114.73217"/>
        <path fill="#ff7f00" id="path1757" d="m322.537628,-121.826843c4.054993,0 7.342987,-3.287994 7.342987,-7.343994c0,-4.056 -3.287994,-7.344009 -7.342987,-7.344009c-4.056,0 -7.343994,3.28801 -7.343994,7.344009c0,4.056 3.287994,7.343994 7.343994,7.343994z"/>
        <path fill="#ff7f00" id="path1759" d="m322.537628,-129.170837"/>
       </g>
      </g>
     </g>
    </g>
   </g>
  </g>
 </g>
</svg>